<mxfile host="app.diagrams.net" modified="2023-08-17T07:44:23.255Z" agent="Mozilla/5.0 (Windows NT 10.0; Win64; x64) AppleWebKit/537.36 (KHTML, like Gecko) Chrome/115.0.0.0 Safari/537.36" etag="BkJHmU-CiT6tVTEF5-Kw" version="21.6.8" type="github">
  <diagram name="페이지-1" id="-gUJO7mvoviYp6cwUs_T">
    <mxGraphModel dx="2152" dy="1142" grid="1" gridSize="10" guides="1" tooltips="1" connect="1" arrows="1" fold="1" page="1" pageScale="1" pageWidth="827" pageHeight="1169" math="0" shadow="0">
      <root>
        <mxCell id="0" />
        <mxCell id="1" parent="0" />
        <mxCell id="oBkjq00Kx3VTGTsn0A3z-1" value="주제 : 전화앱을 통해서 전화를 건다" style="rounded=0;whiteSpace=wrap;html=1;" parent="1" vertex="1">
          <mxGeometry y="80" width="220" height="30" as="geometry" />
        </mxCell>
        <mxCell id="oBkjq00Kx3VTGTsn0A3z-50" value="" style="edgeStyle=orthogonalEdgeStyle;rounded=0;orthogonalLoop=1;jettySize=auto;html=1;" parent="1" source="oBkjq00Kx3VTGTsn0A3z-2" target="oBkjq00Kx3VTGTsn0A3z-8" edge="1">
          <mxGeometry relative="1" as="geometry" />
        </mxCell>
        <mxCell id="oBkjq00Kx3VTGTsn0A3z-2" value="나" style="shape=umlActor;verticalLabelPosition=bottom;verticalAlign=top;html=1;outlineConnect=0;" parent="1" vertex="1">
          <mxGeometry y="465" width="40" height="70" as="geometry" />
        </mxCell>
        <mxCell id="oBkjq00Kx3VTGTsn0A3z-8" value="전화 어플리케이션을 실행한다&amp;nbsp;" style="ellipse;whiteSpace=wrap;html=1;" parent="1" vertex="1">
          <mxGeometry x="81" y="480" width="180" height="40" as="geometry" />
        </mxCell>
        <mxCell id="oBkjq00Kx3VTGTsn0A3z-43" value="" style="edgeStyle=orthogonalEdgeStyle;rounded=0;orthogonalLoop=1;jettySize=auto;html=1;" parent="1" source="oBkjq00Kx3VTGTsn0A3z-9" target="oBkjq00Kx3VTGTsn0A3z-16" edge="1">
          <mxGeometry relative="1" as="geometry" />
        </mxCell>
        <mxCell id="oBkjq00Kx3VTGTsn0A3z-9" value="&#39;즐겨찾기&#39; 메뉴를 선택한다&amp;nbsp;" style="ellipse;whiteSpace=wrap;html=1;" parent="1" vertex="1">
          <mxGeometry x="300" y="210" width="170" height="50" as="geometry" />
        </mxCell>
        <mxCell id="oBkjq00Kx3VTGTsn0A3z-42" value="" style="edgeStyle=orthogonalEdgeStyle;rounded=0;orthogonalLoop=1;jettySize=auto;html=1;" parent="1" source="oBkjq00Kx3VTGTsn0A3z-10" target="oBkjq00Kx3VTGTsn0A3z-16" edge="1">
          <mxGeometry relative="1" as="geometry" />
        </mxCell>
        <mxCell id="oBkjq00Kx3VTGTsn0A3z-10" value="&#39;최근 통화&#39; 메뉴를 선택한다&amp;nbsp;" style="ellipse;whiteSpace=wrap;html=1;" parent="1" vertex="1">
          <mxGeometry x="330" y="350" width="180" height="40" as="geometry" />
        </mxCell>
        <mxCell id="oBkjq00Kx3VTGTsn0A3z-40" value="" style="edgeStyle=orthogonalEdgeStyle;rounded=0;orthogonalLoop=1;jettySize=auto;html=1;" parent="1" source="oBkjq00Kx3VTGTsn0A3z-11" target="oBkjq00Kx3VTGTsn0A3z-16" edge="1">
          <mxGeometry relative="1" as="geometry" />
        </mxCell>
        <mxCell id="oBkjq00Kx3VTGTsn0A3z-11" value="&#39;연락처&#39; 메뉴를 선택한다&amp;nbsp;" style="ellipse;whiteSpace=wrap;html=1;" parent="1" vertex="1">
          <mxGeometry x="340" y="600" width="180" height="40" as="geometry" />
        </mxCell>
        <mxCell id="oBkjq00Kx3VTGTsn0A3z-14" value="&#39;부재중 전화&#39; 로 필터링해서 &lt;br&gt;최근 통화 목록을 확인한다&amp;nbsp;&amp;nbsp;" style="ellipse;whiteSpace=wrap;html=1;" parent="1" vertex="1">
          <mxGeometry x="409" y="270" width="190" height="60" as="geometry" />
        </mxCell>
        <mxCell id="oBkjq00Kx3VTGTsn0A3z-15" value="&#39;전체&#39; 로 필터링해서 &lt;br&gt;최근 통화 목록을 확인한다" style="ellipse;whiteSpace=wrap;html=1;" parent="1" vertex="1">
          <mxGeometry x="425" y="430" width="150" height="60" as="geometry" />
        </mxCell>
        <mxCell id="oBkjq00Kx3VTGTsn0A3z-41" value="" style="edgeStyle=orthogonalEdgeStyle;rounded=0;orthogonalLoop=1;jettySize=auto;html=1;" parent="1" source="oBkjq00Kx3VTGTsn0A3z-16" target="oBkjq00Kx3VTGTsn0A3z-38" edge="1">
          <mxGeometry relative="1" as="geometry" />
        </mxCell>
        <mxCell id="oBkjq00Kx3VTGTsn0A3z-16" value="현재 보여진 화면에서 바로 &lt;br&gt;통화 상대를 선택한다" style="ellipse;whiteSpace=wrap;html=1;" parent="1" vertex="1">
          <mxGeometry x="650" y="333" width="160" height="75" as="geometry" />
        </mxCell>
        <mxCell id="oBkjq00Kx3VTGTsn0A3z-17" value="&amp;lt;&amp;lt;extend&amp;gt;&amp;gt;" style="html=1;verticalAlign=bottom;labelBackgroundColor=none;endArrow=open;endFill=0;dashed=1;rounded=0;exitX=0.5;exitY=1;exitDx=0;exitDy=0;" parent="1" source="oBkjq00Kx3VTGTsn0A3z-10" target="oBkjq00Kx3VTGTsn0A3z-15" edge="1">
          <mxGeometry x="0.4689" width="160" relative="1" as="geometry">
            <mxPoint x="615" y="380" as="sourcePoint" />
            <mxPoint x="775" y="380" as="targetPoint" />
            <mxPoint as="offset" />
          </mxGeometry>
        </mxCell>
        <mxCell id="oBkjq00Kx3VTGTsn0A3z-18" value="&amp;lt;&amp;lt;extend&amp;gt;&amp;gt;" style="html=1;verticalAlign=bottom;labelBackgroundColor=none;endArrow=open;endFill=0;dashed=1;rounded=0;exitX=0.5;exitY=0;exitDx=0;exitDy=0;entryX=0.5;entryY=1;entryDx=0;entryDy=0;" parent="1" source="oBkjq00Kx3VTGTsn0A3z-10" target="oBkjq00Kx3VTGTsn0A3z-14" edge="1">
          <mxGeometry x="-0.5414" y="-1" width="160" relative="1" as="geometry">
            <mxPoint x="555" y="350" as="sourcePoint" />
            <mxPoint x="545" y="380" as="targetPoint" />
            <mxPoint as="offset" />
          </mxGeometry>
        </mxCell>
        <mxCell id="oBkjq00Kx3VTGTsn0A3z-19" value="&#39;검색&#39;을 선택한다" style="ellipse;whiteSpace=wrap;html=1;" parent="1" vertex="1">
          <mxGeometry x="390" y="530" width="135" height="40" as="geometry" />
        </mxCell>
        <mxCell id="oBkjq00Kx3VTGTsn0A3z-20" value="목록을 밑으로 내린다" style="ellipse;whiteSpace=wrap;html=1;" parent="1" vertex="1">
          <mxGeometry x="390" y="680" width="136.5" height="40" as="geometry" />
        </mxCell>
        <mxCell id="oBkjq00Kx3VTGTsn0A3z-22" value="검색어를 입력한다" style="ellipse;whiteSpace=wrap;html=1;" parent="1" vertex="1">
          <mxGeometry x="546.5" y="490" width="135" height="40" as="geometry" />
        </mxCell>
        <mxCell id="tMN2ydZxakkYXUKhEtnf-16" value="" style="edgeStyle=orthogonalEdgeStyle;rounded=0;orthogonalLoop=1;jettySize=auto;html=1;" edge="1" parent="1" source="oBkjq00Kx3VTGTsn0A3z-23" target="oBkjq00Kx3VTGTsn0A3z-25">
          <mxGeometry relative="1" as="geometry" />
        </mxCell>
        <mxCell id="oBkjq00Kx3VTGTsn0A3z-23" value="통화 상대의 번호를 처음부터 끝까지 입력한다&amp;nbsp;" style="ellipse;whiteSpace=wrap;html=1;" parent="1" vertex="1">
          <mxGeometry x="530" y="715" width="260" height="50" as="geometry" />
        </mxCell>
        <mxCell id="oBkjq00Kx3VTGTsn0A3z-24" value="단축번호를 누른다&amp;nbsp;" style="ellipse;whiteSpace=wrap;html=1;" parent="1" vertex="1">
          <mxGeometry x="501.5" y="910" width="128.5" height="40" as="geometry" />
        </mxCell>
        <mxCell id="oBkjq00Kx3VTGTsn0A3z-25" value="통화 버튼을 누른다&amp;nbsp;" style="ellipse;whiteSpace=wrap;html=1;" parent="1" vertex="1">
          <mxGeometry x="850" y="715" width="140" height="50" as="geometry" />
        </mxCell>
        <mxCell id="oBkjq00Kx3VTGTsn0A3z-26" value="" style="endArrow=classic;html=1;rounded=0;entryX=0;entryY=0.5;entryDx=0;entryDy=0;exitX=1;exitY=0.5;exitDx=0;exitDy=0;" parent="1" source="oBkjq00Kx3VTGTsn0A3z-8" target="oBkjq00Kx3VTGTsn0A3z-10" edge="1">
          <mxGeometry width="50" height="50" relative="1" as="geometry">
            <mxPoint x="220" y="340" as="sourcePoint" />
            <mxPoint x="550" y="350" as="targetPoint" />
          </mxGeometry>
        </mxCell>
        <mxCell id="oBkjq00Kx3VTGTsn0A3z-27" value="" style="endArrow=classic;html=1;rounded=0;entryX=0;entryY=0.5;entryDx=0;entryDy=0;exitX=0.9;exitY=0.22;exitDx=0;exitDy=0;exitPerimeter=0;" parent="1" source="oBkjq00Kx3VTGTsn0A3z-8" target="oBkjq00Kx3VTGTsn0A3z-9" edge="1">
          <mxGeometry width="50" height="50" relative="1" as="geometry">
            <mxPoint x="200" y="320" as="sourcePoint" />
            <mxPoint x="280" y="360" as="targetPoint" />
          </mxGeometry>
        </mxCell>
        <mxCell id="oBkjq00Kx3VTGTsn0A3z-28" value="" style="endArrow=classic;html=1;rounded=0;entryX=0;entryY=0.5;entryDx=0;entryDy=0;exitX=0.944;exitY=0.75;exitDx=0;exitDy=0;exitPerimeter=0;" parent="1" source="oBkjq00Kx3VTGTsn0A3z-8" target="oBkjq00Kx3VTGTsn0A3z-11" edge="1">
          <mxGeometry width="50" height="50" relative="1" as="geometry">
            <mxPoint x="240" y="330" as="sourcePoint" />
            <mxPoint x="440" y="370" as="targetPoint" />
          </mxGeometry>
        </mxCell>
        <mxCell id="oBkjq00Kx3VTGTsn0A3z-29" value="" style="endArrow=classic;html=1;rounded=0;entryX=0;entryY=0.5;entryDx=0;entryDy=0;exitX=0.793;exitY=0.9;exitDx=0;exitDy=0;exitPerimeter=0;" parent="1" source="oBkjq00Kx3VTGTsn0A3z-8" target="oBkjq00Kx3VTGTsn0A3z-47" edge="1">
          <mxGeometry width="50" height="50" relative="1" as="geometry">
            <mxPoint x="232" y="340" as="sourcePoint" />
            <mxPoint x="440" y="645" as="targetPoint" />
          </mxGeometry>
        </mxCell>
        <mxCell id="oBkjq00Kx3VTGTsn0A3z-30" value="&amp;lt;&amp;lt;extend&amp;gt;&amp;gt;" style="html=1;verticalAlign=bottom;labelBackgroundColor=none;endArrow=open;endFill=0;dashed=1;rounded=0;exitX=0.398;exitY=0.08;exitDx=0;exitDy=0;entryX=0.381;entryY=1;entryDx=0;entryDy=0;entryPerimeter=0;exitPerimeter=0;" parent="1" source="oBkjq00Kx3VTGTsn0A3z-11" target="oBkjq00Kx3VTGTsn0A3z-19" edge="1">
          <mxGeometry x="-0.2687" y="-8" width="160" relative="1" as="geometry">
            <mxPoint x="489" y="630" as="sourcePoint" />
            <mxPoint x="509" y="550" as="targetPoint" />
            <mxPoint as="offset" />
          </mxGeometry>
        </mxCell>
        <mxCell id="oBkjq00Kx3VTGTsn0A3z-31" value="" style="endArrow=classic;html=1;rounded=0;entryX=0;entryY=0.5;entryDx=0;entryDy=0;exitX=0.653;exitY=-0.005;exitDx=0;exitDy=0;exitPerimeter=0;" parent="1" source="oBkjq00Kx3VTGTsn0A3z-19" target="oBkjq00Kx3VTGTsn0A3z-22" edge="1">
          <mxGeometry width="50" height="50" relative="1" as="geometry">
            <mxPoint x="521.5" y="560" as="sourcePoint" />
            <mxPoint x="550" y="530" as="targetPoint" />
          </mxGeometry>
        </mxCell>
        <mxCell id="oBkjq00Kx3VTGTsn0A3z-32" value="&amp;lt;&amp;lt;extend&amp;gt;&amp;gt;" style="html=1;verticalAlign=bottom;labelBackgroundColor=none;endArrow=open;endFill=0;dashed=1;rounded=0;exitX=0.426;exitY=1.032;exitDx=0;exitDy=0;entryX=0.5;entryY=0;entryDx=0;entryDy=0;exitPerimeter=0;" parent="1" edge="1" target="oBkjq00Kx3VTGTsn0A3z-20">
          <mxGeometry x="0.4433" y="-8" width="160" relative="1" as="geometry">
            <mxPoint x="426.67999999999984" y="642.28" as="sourcePoint" />
            <mxPoint x="478.25" y="671" as="targetPoint" />
            <mxPoint as="offset" />
          </mxGeometry>
        </mxCell>
        <mxCell id="oBkjq00Kx3VTGTsn0A3z-38" value="전화를 건다&lt;br&gt;(해당 사용자의 이름 혹은 번호를 누른다? )&amp;nbsp;" style="ellipse;whiteSpace=wrap;html=1;" parent="1" vertex="1">
          <mxGeometry x="850" y="337.5" width="270" height="65" as="geometry" />
        </mxCell>
        <mxCell id="tMN2ydZxakkYXUKhEtnf-14" value="" style="edgeStyle=orthogonalEdgeStyle;rounded=0;orthogonalLoop=1;jettySize=auto;html=1;" edge="1" parent="1" source="oBkjq00Kx3VTGTsn0A3z-44" target="tMN2ydZxakkYXUKhEtnf-13">
          <mxGeometry relative="1" as="geometry" />
        </mxCell>
        <mxCell id="oBkjq00Kx3VTGTsn0A3z-44" value="빈 화면에서 통화 아이콘을 누른다&amp;nbsp;" style="ellipse;whiteSpace=wrap;html=1;" parent="1" vertex="1">
          <mxGeometry x="546.5" y="810" width="200" height="40" as="geometry" />
        </mxCell>
        <mxCell id="oBkjq00Kx3VTGTsn0A3z-47" value="&#39;키패드&#39; 메뉴를 선택한다&amp;nbsp;" style="ellipse;whiteSpace=wrap;html=1;" parent="1" vertex="1">
          <mxGeometry x="340" y="800" width="180" height="40" as="geometry" />
        </mxCell>
        <mxCell id="oBkjq00Kx3VTGTsn0A3z-51" value="목록을 밑으로 내린다" style="ellipse;whiteSpace=wrap;html=1;" parent="1" vertex="1">
          <mxGeometry x="320" y="120" width="145" height="50" as="geometry" />
        </mxCell>
        <mxCell id="oBkjq00Kx3VTGTsn0A3z-52" value="&amp;lt;&amp;lt;extend&amp;gt;&amp;gt;" style="html=1;verticalAlign=bottom;labelBackgroundColor=none;endArrow=open;endFill=0;dashed=1;rounded=0;exitX=0.398;exitY=0.08;exitDx=0;exitDy=0;exitPerimeter=0;" parent="1" edge="1">
          <mxGeometry x="-0.5" y="3" width="160" relative="1" as="geometry">
            <mxPoint x="383" y="210" as="sourcePoint" />
            <mxPoint x="383" y="170" as="targetPoint" />
            <mxPoint y="1" as="offset" />
          </mxGeometry>
        </mxCell>
        <mxCell id="tMN2ydZxakkYXUKhEtnf-2" value="&lt;font color=&quot;#ff2908&quot;&gt;덜그렸음 연락처 / 즐겨찾기&amp;nbsp;&amp;nbsp;&lt;/font&gt;" style="rounded=0;whiteSpace=wrap;html=1;" vertex="1" parent="1">
          <mxGeometry x="420" y="50" width="210" height="30" as="geometry" />
        </mxCell>
        <mxCell id="tMN2ydZxakkYXUKhEtnf-6" value="" style="endArrow=classic;html=1;rounded=0;entryX=0;entryY=0.5;entryDx=0;entryDy=0;exitX=1;exitY=0.5;exitDx=0;exitDy=0;" edge="1" parent="1" source="oBkjq00Kx3VTGTsn0A3z-47" target="oBkjq00Kx3VTGTsn0A3z-44">
          <mxGeometry width="50" height="50" relative="1" as="geometry">
            <mxPoint x="510" y="820" as="sourcePoint" />
            <mxPoint x="599" y="800" as="targetPoint" />
          </mxGeometry>
        </mxCell>
        <mxCell id="tMN2ydZxakkYXUKhEtnf-7" value="" style="endArrow=classic;html=1;rounded=0;entryX=0;entryY=0.5;entryDx=0;entryDy=0;exitX=1;exitY=1;exitDx=0;exitDy=0;" edge="1" parent="1" source="oBkjq00Kx3VTGTsn0A3z-47" target="oBkjq00Kx3VTGTsn0A3z-24">
          <mxGeometry width="50" height="50" relative="1" as="geometry">
            <mxPoint x="530" y="820" as="sourcePoint" />
            <mxPoint x="620" y="860" as="targetPoint" />
          </mxGeometry>
        </mxCell>
        <mxCell id="tMN2ydZxakkYXUKhEtnf-9" value="" style="endArrow=classic;html=1;rounded=0;entryX=0;entryY=0.5;entryDx=0;entryDy=0;exitX=1;exitY=0;exitDx=0;exitDy=0;" edge="1" parent="1" source="oBkjq00Kx3VTGTsn0A3z-47" target="oBkjq00Kx3VTGTsn0A3z-23">
          <mxGeometry width="50" height="50" relative="1" as="geometry">
            <mxPoint x="490" y="800" as="sourcePoint" />
            <mxPoint x="546.5" y="779" as="targetPoint" />
          </mxGeometry>
        </mxCell>
        <mxCell id="tMN2ydZxakkYXUKhEtnf-17" value="" style="edgeStyle=orthogonalEdgeStyle;rounded=0;orthogonalLoop=1;jettySize=auto;html=1;exitX=0.655;exitY=0.04;exitDx=0;exitDy=0;exitPerimeter=0;" edge="1" parent="1" source="tMN2ydZxakkYXUKhEtnf-13" target="oBkjq00Kx3VTGTsn0A3z-25">
          <mxGeometry relative="1" as="geometry" />
        </mxCell>
        <mxCell id="tMN2ydZxakkYXUKhEtnf-13" value="화면에 가장 최근에 발신했던 번호가 &lt;br&gt;자동 완성이 되어서 뜬 걸 확인한다&amp;nbsp;" style="ellipse;whiteSpace=wrap;html=1;" vertex="1" parent="1">
          <mxGeometry x="770" y="805" width="230" height="50" as="geometry" />
        </mxCell>
        <mxCell id="tMN2ydZxakkYXUKhEtnf-18" value="" style="edgeStyle=orthogonalEdgeStyle;rounded=0;orthogonalLoop=1;jettySize=auto;html=1;" edge="1" parent="1" target="tMN2ydZxakkYXUKhEtnf-19">
          <mxGeometry relative="1" as="geometry">
            <mxPoint x="65.25" y="1549" as="sourcePoint" />
          </mxGeometry>
        </mxCell>
        <mxCell id="tMN2ydZxakkYXUKhEtnf-19" value="전화 어플리케이션을 실행한다&amp;nbsp;" style="ellipse;whiteSpace=wrap;html=1;" vertex="1" parent="1">
          <mxGeometry x="115.25" y="1528.75" width="180" height="40" as="geometry" />
        </mxCell>
        <mxCell id="tMN2ydZxakkYXUKhEtnf-83" value="" style="edgeStyle=orthogonalEdgeStyle;rounded=0;orthogonalLoop=1;jettySize=auto;html=1;" edge="1" parent="1" source="tMN2ydZxakkYXUKhEtnf-21" target="tMN2ydZxakkYXUKhEtnf-77">
          <mxGeometry relative="1" as="geometry" />
        </mxCell>
        <mxCell id="tMN2ydZxakkYXUKhEtnf-21" value="&#39;즐겨찾기&#39; 메뉴를 선택한다&amp;nbsp;" style="ellipse;whiteSpace=wrap;html=1;" vertex="1" parent="1">
          <mxGeometry x="259.75" y="1143.75" width="170" height="50" as="geometry" />
        </mxCell>
        <mxCell id="tMN2ydZxakkYXUKhEtnf-85" value="" style="edgeStyle=orthogonalEdgeStyle;rounded=0;orthogonalLoop=1;jettySize=auto;html=1;" edge="1" parent="1" source="tMN2ydZxakkYXUKhEtnf-23" target="tMN2ydZxakkYXUKhEtnf-84">
          <mxGeometry relative="1" as="geometry" />
        </mxCell>
        <mxCell id="tMN2ydZxakkYXUKhEtnf-23" value="&#39;최근 통화&#39; 메뉴를 선택한다&amp;nbsp;" style="ellipse;whiteSpace=wrap;html=1;" vertex="1" parent="1">
          <mxGeometry x="261" y="1332.5" width="180" height="40" as="geometry" />
        </mxCell>
        <mxCell id="tMN2ydZxakkYXUKhEtnf-65" value="" style="edgeStyle=orthogonalEdgeStyle;rounded=0;orthogonalLoop=1;jettySize=auto;html=1;" edge="1" parent="1" target="tMN2ydZxakkYXUKhEtnf-59">
          <mxGeometry relative="1" as="geometry">
            <mxPoint x="425.25" y="1651.5" as="sourcePoint" />
          </mxGeometry>
        </mxCell>
        <mxCell id="tMN2ydZxakkYXUKhEtnf-25" value="&#39;연락처&#39; 메뉴를 선택한다&amp;nbsp;" style="ellipse;whiteSpace=wrap;html=1;" vertex="1" parent="1">
          <mxGeometry x="265.25" y="1631.5" width="160" height="40" as="geometry" />
        </mxCell>
        <mxCell id="tMN2ydZxakkYXUKhEtnf-26" value="&#39;부재중 전화&#39; 로 필터링해서 &lt;br&gt;최근 통화 목록을 확인한다&amp;nbsp;&amp;nbsp;" style="ellipse;whiteSpace=wrap;html=1;" vertex="1" parent="1">
          <mxGeometry x="419.25" y="1227.5" width="190" height="60" as="geometry" />
        </mxCell>
        <mxCell id="tMN2ydZxakkYXUKhEtnf-27" value="&#39;전체&#39; 로 필터링해서 &lt;br&gt;최근 통화 목록을 확인한다" style="ellipse;whiteSpace=wrap;html=1;" vertex="1" parent="1">
          <mxGeometry x="609.25" y="1243" width="150" height="60" as="geometry" />
        </mxCell>
        <mxCell id="tMN2ydZxakkYXUKhEtnf-28" value="" style="edgeStyle=orthogonalEdgeStyle;rounded=0;orthogonalLoop=1;jettySize=auto;html=1;entryX=0;entryY=0.5;entryDx=0;entryDy=0;" edge="1" parent="1" target="tMN2ydZxakkYXUKhEtnf-46">
          <mxGeometry relative="1" as="geometry">
            <mxPoint x="615.25" y="1347" as="sourcePoint" />
            <mxPoint x="659.25" y="1346.5" as="targetPoint" />
          </mxGeometry>
        </mxCell>
        <mxCell id="tMN2ydZxakkYXUKhEtnf-30" value="&amp;lt;&amp;lt;extend&amp;gt;&amp;gt;" style="html=1;verticalAlign=bottom;labelBackgroundColor=none;endArrow=open;endFill=0;dashed=1;rounded=0;exitX=1;exitY=0;exitDx=0;exitDy=0;" edge="1" parent="1" source="tMN2ydZxakkYXUKhEtnf-84" target="tMN2ydZxakkYXUKhEtnf-27">
          <mxGeometry x="-0.2591" y="-12" width="160" relative="1" as="geometry">
            <mxPoint x="636.75" y="1232.5" as="sourcePoint" />
            <mxPoint x="991.75" y="1222.5" as="targetPoint" />
            <mxPoint as="offset" />
          </mxGeometry>
        </mxCell>
        <mxCell id="tMN2ydZxakkYXUKhEtnf-31" value="&amp;lt;&amp;lt;extend&amp;gt;&amp;gt;" style="html=1;verticalAlign=bottom;labelBackgroundColor=none;endArrow=open;endFill=0;dashed=1;rounded=0;exitX=0.199;exitY=0.091;exitDx=0;exitDy=0;entryX=0.356;entryY=0.958;entryDx=0;entryDy=0;exitPerimeter=0;entryPerimeter=0;" edge="1" parent="1" source="tMN2ydZxakkYXUKhEtnf-84" target="tMN2ydZxakkYXUKhEtnf-26">
          <mxGeometry x="-0.5414" y="-1" width="160" relative="1" as="geometry">
            <mxPoint x="470.25" y="1307.5" as="sourcePoint" />
            <mxPoint x="595.25" y="1337.5" as="targetPoint" />
            <mxPoint as="offset" />
          </mxGeometry>
        </mxCell>
        <mxCell id="tMN2ydZxakkYXUKhEtnf-32" value="&#39;검색창&#39; 에 검색어를 입력한다" style="ellipse;whiteSpace=wrap;html=1;" vertex="1" parent="1">
          <mxGeometry x="401.25" y="1554" width="175" height="40" as="geometry" />
        </mxCell>
        <mxCell id="tMN2ydZxakkYXUKhEtnf-34" value="검색된 연락처를 선택한다" style="ellipse;whiteSpace=wrap;html=1;" vertex="1" parent="1">
          <mxGeometry x="510.25" y="1474" width="180" height="60" as="geometry" />
        </mxCell>
        <mxCell id="tMN2ydZxakkYXUKhEtnf-35" value="" style="edgeStyle=orthogonalEdgeStyle;rounded=0;orthogonalLoop=1;jettySize=auto;html=1;" edge="1" parent="1" source="tMN2ydZxakkYXUKhEtnf-36" target="tMN2ydZxakkYXUKhEtnf-38">
          <mxGeometry relative="1" as="geometry" />
        </mxCell>
        <mxCell id="tMN2ydZxakkYXUKhEtnf-36" value="통화 상대의 번호를 처음부터 끝까지 입력한다&amp;nbsp;" style="ellipse;whiteSpace=wrap;html=1;" vertex="1" parent="1">
          <mxGeometry x="384.25" y="1830" width="260" height="50" as="geometry" />
        </mxCell>
        <mxCell id="tMN2ydZxakkYXUKhEtnf-37" value="단축번호를 누른다&amp;nbsp;" style="ellipse;whiteSpace=wrap;html=1;" vertex="1" parent="1">
          <mxGeometry x="395" y="2010" width="128.5" height="40" as="geometry" />
        </mxCell>
        <mxCell id="tMN2ydZxakkYXUKhEtnf-38" value="통화 버튼을 눌러서 &lt;br&gt;전화를 건다" style="ellipse;whiteSpace=wrap;html=1;" vertex="1" parent="1">
          <mxGeometry x="675.25" y="1830" width="121" height="50" as="geometry" />
        </mxCell>
        <mxCell id="tMN2ydZxakkYXUKhEtnf-39" value="" style="endArrow=classic;html=1;rounded=0;entryX=0.345;entryY=1.025;entryDx=0;entryDy=0;exitX=0.664;exitY=-0.019;exitDx=0;exitDy=0;exitPerimeter=0;entryPerimeter=0;" edge="1" parent="1" source="tMN2ydZxakkYXUKhEtnf-19" target="tMN2ydZxakkYXUKhEtnf-23">
          <mxGeometry width="50" height="50" relative="1" as="geometry">
            <mxPoint x="235.25" y="1380" as="sourcePoint" />
            <mxPoint x="565.25" y="1390" as="targetPoint" />
          </mxGeometry>
        </mxCell>
        <mxCell id="tMN2ydZxakkYXUKhEtnf-40" value="" style="endArrow=classic;html=1;rounded=0;entryX=0;entryY=0.5;entryDx=0;entryDy=0;exitX=0.364;exitY=0.056;exitDx=0;exitDy=0;exitPerimeter=0;" edge="1" parent="1" source="tMN2ydZxakkYXUKhEtnf-19" target="tMN2ydZxakkYXUKhEtnf-21">
          <mxGeometry width="50" height="50" relative="1" as="geometry">
            <mxPoint x="215.25" y="1360" as="sourcePoint" />
            <mxPoint x="295.25" y="1400" as="targetPoint" />
          </mxGeometry>
        </mxCell>
        <mxCell id="tMN2ydZxakkYXUKhEtnf-41" value="" style="endArrow=classic;html=1;rounded=0;entryX=0.07;entryY=0.256;entryDx=0;entryDy=0;exitX=0.664;exitY=0.981;exitDx=0;exitDy=0;exitPerimeter=0;entryPerimeter=0;" edge="1" parent="1" source="tMN2ydZxakkYXUKhEtnf-19" target="tMN2ydZxakkYXUKhEtnf-25">
          <mxGeometry width="50" height="50" relative="1" as="geometry">
            <mxPoint x="255.25" y="1550" as="sourcePoint" />
            <mxPoint x="455.25" y="1410" as="targetPoint" />
          </mxGeometry>
        </mxCell>
        <mxCell id="tMN2ydZxakkYXUKhEtnf-42" value="" style="endArrow=classic;html=1;rounded=0;entryX=0;entryY=0.5;entryDx=0;entryDy=0;exitX=0.342;exitY=1.006;exitDx=0;exitDy=0;exitPerimeter=0;" edge="1" parent="1" source="tMN2ydZxakkYXUKhEtnf-19" target="tMN2ydZxakkYXUKhEtnf-49">
          <mxGeometry width="50" height="50" relative="1" as="geometry">
            <mxPoint x="247.25" y="1380" as="sourcePoint" />
            <mxPoint x="455.25" y="1685" as="targetPoint" />
          </mxGeometry>
        </mxCell>
        <mxCell id="tMN2ydZxakkYXUKhEtnf-43" value="&amp;lt;&amp;lt;extend&amp;gt;&amp;gt;" style="html=1;verticalAlign=bottom;labelBackgroundColor=none;endArrow=open;endFill=0;dashed=1;rounded=0;entryX=0.549;entryY=1.063;entryDx=0;entryDy=0;entryPerimeter=0;exitX=0.199;exitY=0.152;exitDx=0;exitDy=0;exitPerimeter=0;" edge="1" parent="1" source="tMN2ydZxakkYXUKhEtnf-59" target="tMN2ydZxakkYXUKhEtnf-32">
          <mxGeometry x="-0.2085" width="160" relative="1" as="geometry">
            <mxPoint x="555.25" y="1634" as="sourcePoint" />
            <mxPoint x="484.25" y="1594" as="targetPoint" />
            <mxPoint as="offset" />
          </mxGeometry>
        </mxCell>
        <mxCell id="tMN2ydZxakkYXUKhEtnf-44" value="" style="endArrow=classic;html=1;rounded=0;exitX=0.609;exitY=0;exitDx=0;exitDy=0;exitPerimeter=0;entryX=0.231;entryY=0.9;entryDx=0;entryDy=0;entryPerimeter=0;" edge="1" parent="1" source="tMN2ydZxakkYXUKhEtnf-32" target="tMN2ydZxakkYXUKhEtnf-34">
          <mxGeometry width="50" height="50" relative="1" as="geometry">
            <mxPoint x="526.75" y="1564" as="sourcePoint" />
            <mxPoint x="575.25" y="1474" as="targetPoint" />
          </mxGeometry>
        </mxCell>
        <mxCell id="tMN2ydZxakkYXUKhEtnf-46" value="전화를 건다" style="ellipse;whiteSpace=wrap;html=1;" vertex="1" parent="1">
          <mxGeometry x="690.25" y="1314.5" width="126.5" height="65" as="geometry" />
        </mxCell>
        <mxCell id="tMN2ydZxakkYXUKhEtnf-47" value="" style="edgeStyle=orthogonalEdgeStyle;rounded=0;orthogonalLoop=1;jettySize=auto;html=1;" edge="1" parent="1" source="tMN2ydZxakkYXUKhEtnf-48" target="tMN2ydZxakkYXUKhEtnf-58">
          <mxGeometry relative="1" as="geometry" />
        </mxCell>
        <mxCell id="tMN2ydZxakkYXUKhEtnf-48" value="빈 화면에서 통화 아이콘을 누른다&amp;nbsp;" style="ellipse;whiteSpace=wrap;html=1;" vertex="1" parent="1">
          <mxGeometry x="401.25" y="1920" width="200" height="40" as="geometry" />
        </mxCell>
        <mxCell id="tMN2ydZxakkYXUKhEtnf-49" value="&#39;키패드&#39; 메뉴를 선택한다&amp;nbsp;" style="ellipse;whiteSpace=wrap;html=1;" vertex="1" parent="1">
          <mxGeometry x="215.25" y="1920" width="164.25" height="40" as="geometry" />
        </mxCell>
        <mxCell id="tMN2ydZxakkYXUKhEtnf-54" value="" style="endArrow=classic;html=1;rounded=0;entryX=0;entryY=0.5;entryDx=0;entryDy=0;exitX=1;exitY=0.5;exitDx=0;exitDy=0;" edge="1" parent="1" source="tMN2ydZxakkYXUKhEtnf-49" target="tMN2ydZxakkYXUKhEtnf-48">
          <mxGeometry width="50" height="50" relative="1" as="geometry">
            <mxPoint x="421" y="1935" as="sourcePoint" />
            <mxPoint x="510" y="1915" as="targetPoint" />
          </mxGeometry>
        </mxCell>
        <mxCell id="tMN2ydZxakkYXUKhEtnf-55" value="" style="endArrow=classic;html=1;rounded=0;entryX=0;entryY=0.5;entryDx=0;entryDy=0;exitX=0.559;exitY=1;exitDx=0;exitDy=0;exitPerimeter=0;" edge="1" parent="1" source="tMN2ydZxakkYXUKhEtnf-49" target="tMN2ydZxakkYXUKhEtnf-37">
          <mxGeometry width="50" height="50" relative="1" as="geometry">
            <mxPoint x="441" y="1935" as="sourcePoint" />
            <mxPoint x="531" y="1975" as="targetPoint" />
          </mxGeometry>
        </mxCell>
        <mxCell id="tMN2ydZxakkYXUKhEtnf-56" value="" style="endArrow=classic;html=1;rounded=0;entryX=0;entryY=0.5;entryDx=0;entryDy=0;exitX=0.605;exitY=0;exitDx=0;exitDy=0;exitPerimeter=0;" edge="1" parent="1" source="tMN2ydZxakkYXUKhEtnf-49" target="tMN2ydZxakkYXUKhEtnf-36">
          <mxGeometry width="50" height="50" relative="1" as="geometry">
            <mxPoint x="401" y="1915" as="sourcePoint" />
            <mxPoint x="457.5" y="1894" as="targetPoint" />
          </mxGeometry>
        </mxCell>
        <mxCell id="tMN2ydZxakkYXUKhEtnf-57" value="" style="edgeStyle=orthogonalEdgeStyle;rounded=0;orthogonalLoop=1;jettySize=auto;html=1;exitX=0.616;exitY=0.029;exitDx=0;exitDy=0;exitPerimeter=0;" edge="1" parent="1" source="tMN2ydZxakkYXUKhEtnf-58" target="tMN2ydZxakkYXUKhEtnf-38">
          <mxGeometry relative="1" as="geometry">
            <mxPoint x="766.25" y="1910" as="sourcePoint" />
            <Array as="points">
              <mxPoint x="736.25" y="1907" />
              <mxPoint x="736.25" y="1875" />
            </Array>
          </mxGeometry>
        </mxCell>
        <mxCell id="tMN2ydZxakkYXUKhEtnf-58" value="화면에 가장 최근에 발신했던 번호가 &lt;br&gt;자동 완성이 되어서 뜬 걸 확인한다&amp;nbsp;" style="ellipse;whiteSpace=wrap;html=1;" vertex="1" parent="1">
          <mxGeometry x="622.25" y="1905" width="213" height="70" as="geometry" />
        </mxCell>
        <mxCell id="tMN2ydZxakkYXUKhEtnf-59" value="통화 상대를 선택한다&amp;nbsp;" style="ellipse;whiteSpace=wrap;html=1;" vertex="1" parent="1">
          <mxGeometry x="454.25" y="1622.75" width="139" height="57.5" as="geometry" />
        </mxCell>
        <mxCell id="tMN2ydZxakkYXUKhEtnf-60" value="&#39;전화번호&#39; 를 눌러서 전화를 건다" style="ellipse;whiteSpace=wrap;html=1;" vertex="1" parent="1">
          <mxGeometry x="726.75" y="1610" width="118" height="55" as="geometry" />
        </mxCell>
        <mxCell id="tMN2ydZxakkYXUKhEtnf-61" value="목록을 밑으로 내려서 찾는다" style="ellipse;whiteSpace=wrap;html=1;" vertex="1" parent="1">
          <mxGeometry x="385.25" y="1708" width="170" height="40" as="geometry" />
        </mxCell>
        <mxCell id="tMN2ydZxakkYXUKhEtnf-62" value="&amp;lt;&amp;lt;extend&amp;gt;&amp;gt;" style="html=1;verticalAlign=bottom;labelBackgroundColor=none;endArrow=open;endFill=0;dashed=1;rounded=0;entryX=0.5;entryY=0;entryDx=0;entryDy=0;exitX=0;exitY=1;exitDx=0;exitDy=0;" edge="1" parent="1" target="tMN2ydZxakkYXUKhEtnf-61" source="tMN2ydZxakkYXUKhEtnf-59">
          <mxGeometry x="0.0019" y="-1" width="160" relative="1" as="geometry">
            <mxPoint x="595.25" y="1694" as="sourcePoint" />
            <mxPoint x="707" y="1730.22" as="targetPoint" />
            <mxPoint as="offset" />
          </mxGeometry>
        </mxCell>
        <mxCell id="tMN2ydZxakkYXUKhEtnf-63" value="현재 보여진 화면에서 바로 &lt;br&gt;통화 상대를 선택한다" style="ellipse;whiteSpace=wrap;html=1;" vertex="1" parent="1">
          <mxGeometry x="535.25" y="1738" width="170" height="60" as="geometry" />
        </mxCell>
        <mxCell id="tMN2ydZxakkYXUKhEtnf-64" value="&amp;lt;&amp;lt;extend&amp;gt;&amp;gt;" style="html=1;verticalAlign=bottom;labelBackgroundColor=none;endArrow=open;endFill=0;dashed=1;rounded=0;exitX=0.753;exitY=0.935;exitDx=0;exitDy=0;entryX=0.342;entryY=0.033;entryDx=0;entryDy=0;entryPerimeter=0;exitPerimeter=0;" edge="1" parent="1" source="tMN2ydZxakkYXUKhEtnf-59" target="tMN2ydZxakkYXUKhEtnf-63">
          <mxGeometry x="0.3948" y="-3" width="160" relative="1" as="geometry">
            <mxPoint x="637.25" y="1626.5" as="sourcePoint" />
            <mxPoint x="775.25" y="1583.5" as="targetPoint" />
            <mxPoint as="offset" />
          </mxGeometry>
        </mxCell>
        <mxCell id="tMN2ydZxakkYXUKhEtnf-66" value="통화 버튼을 눌러서&amp;nbsp;&lt;br&gt;전화를 건다&amp;nbsp;" style="ellipse;whiteSpace=wrap;html=1;" vertex="1" parent="1">
          <mxGeometry x="601.75" y="1572.75" width="125" height="50" as="geometry" />
        </mxCell>
        <mxCell id="tMN2ydZxakkYXUKhEtnf-67" value="" style="endArrow=classic;html=1;rounded=0;entryX=0.317;entryY=0.96;entryDx=0;entryDy=0;entryPerimeter=0;exitX=0.983;exitY=0.4;exitDx=0;exitDy=0;exitPerimeter=0;" edge="1" parent="1" source="tMN2ydZxakkYXUKhEtnf-59" target="tMN2ydZxakkYXUKhEtnf-66">
          <mxGeometry width="50" height="50" relative="1" as="geometry">
            <mxPoint x="625.25" y="1634" as="sourcePoint" />
            <mxPoint x="714.25" y="1614" as="targetPoint" />
          </mxGeometry>
        </mxCell>
        <mxCell id="tMN2ydZxakkYXUKhEtnf-68" value="" style="endArrow=classic;html=1;rounded=0;entryX=0;entryY=0.5;entryDx=0;entryDy=0;exitX=0.94;exitY=0.748;exitDx=0;exitDy=0;exitPerimeter=0;" edge="1" parent="1" source="tMN2ydZxakkYXUKhEtnf-59" target="tMN2ydZxakkYXUKhEtnf-60">
          <mxGeometry width="50" height="50" relative="1" as="geometry">
            <mxPoint x="660.25" y="1674" as="sourcePoint" />
            <mxPoint x="715.25" y="1704" as="targetPoint" />
          </mxGeometry>
        </mxCell>
        <mxCell id="tMN2ydZxakkYXUKhEtnf-71" value="" style="endArrow=classic;html=1;rounded=0;entryX=0.5;entryY=0;entryDx=0;entryDy=0;exitX=0.82;exitY=0.933;exitDx=0;exitDy=0;exitPerimeter=0;" edge="1" parent="1" source="tMN2ydZxakkYXUKhEtnf-34" target="tMN2ydZxakkYXUKhEtnf-66">
          <mxGeometry width="50" height="50" relative="1" as="geometry">
            <mxPoint x="675.25" y="1464" as="sourcePoint" />
            <mxPoint x="725.25" y="1414" as="targetPoint" />
          </mxGeometry>
        </mxCell>
        <mxCell id="tMN2ydZxakkYXUKhEtnf-73" value="" style="endArrow=classic;html=1;rounded=0;entryX=0.5;entryY=0;entryDx=0;entryDy=0;exitX=0.976;exitY=0.683;exitDx=0;exitDy=0;exitPerimeter=0;" edge="1" parent="1" source="tMN2ydZxakkYXUKhEtnf-34" target="tMN2ydZxakkYXUKhEtnf-60">
          <mxGeometry width="50" height="50" relative="1" as="geometry">
            <mxPoint x="725.25" y="1444" as="sourcePoint" />
            <mxPoint x="785.25" y="1394" as="targetPoint" />
          </mxGeometry>
        </mxCell>
        <mxCell id="tMN2ydZxakkYXUKhEtnf-75" style="edgeStyle=orthogonalEdgeStyle;rounded=0;orthogonalLoop=1;jettySize=auto;html=1;exitX=0.5;exitY=1;exitDx=0;exitDy=0;" edge="1" parent="1" source="tMN2ydZxakkYXUKhEtnf-25" target="tMN2ydZxakkYXUKhEtnf-25">
          <mxGeometry relative="1" as="geometry" />
        </mxCell>
        <mxCell id="tMN2ydZxakkYXUKhEtnf-77" value="통화 상대를 선택해서 &lt;br&gt;전화를 건다" style="ellipse;whiteSpace=wrap;html=1;" vertex="1" parent="1">
          <mxGeometry x="499.75" y="1140" width="139" height="57.5" as="geometry" />
        </mxCell>
        <mxCell id="tMN2ydZxakkYXUKhEtnf-78" value="목록을 밑으로 내려서 찾는다" style="ellipse;whiteSpace=wrap;html=1;" vertex="1" parent="1">
          <mxGeometry x="415.25" y="1040" width="170" height="40" as="geometry" />
        </mxCell>
        <mxCell id="tMN2ydZxakkYXUKhEtnf-79" value="&amp;lt;&amp;lt;extend&amp;gt;&amp;gt;" style="html=1;verticalAlign=bottom;labelBackgroundColor=none;endArrow=open;endFill=0;dashed=1;rounded=0;exitX=0.249;exitY=0.035;exitDx=0;exitDy=0;exitPerimeter=0;entryX=0.457;entryY=1.075;entryDx=0;entryDy=0;entryPerimeter=0;" edge="1" parent="1" source="tMN2ydZxakkYXUKhEtnf-77" target="tMN2ydZxakkYXUKhEtnf-78">
          <mxGeometry x="0.0019" y="-1" width="160" relative="1" as="geometry">
            <mxPoint x="609.75" y="1220" as="sourcePoint" />
            <mxPoint x="519.75" y="1050" as="targetPoint" />
            <mxPoint as="offset" />
          </mxGeometry>
        </mxCell>
        <mxCell id="tMN2ydZxakkYXUKhEtnf-80" value="현재 보여진 화면에서 바로 &lt;br&gt;통화 상대를 선택한다" style="ellipse;whiteSpace=wrap;html=1;" vertex="1" parent="1">
          <mxGeometry x="589.25" y="1060" width="170" height="54" as="geometry" />
        </mxCell>
        <mxCell id="tMN2ydZxakkYXUKhEtnf-81" value="&amp;lt;&amp;lt;extend&amp;gt;&amp;gt;" style="html=1;verticalAlign=bottom;labelBackgroundColor=none;endArrow=open;endFill=0;dashed=1;rounded=0;exitX=0.731;exitY=0.07;exitDx=0;exitDy=0;exitPerimeter=0;" edge="1" parent="1" source="tMN2ydZxakkYXUKhEtnf-77" target="tMN2ydZxakkYXUKhEtnf-80">
          <mxGeometry x="-0.2806" y="-4" width="160" relative="1" as="geometry">
            <mxPoint x="594.75" y="1140" as="sourcePoint" />
            <mxPoint x="632.7943501681066" y="1098.9055283065818" as="targetPoint" />
            <mxPoint as="offset" />
          </mxGeometry>
        </mxCell>
        <mxCell id="tMN2ydZxakkYXUKhEtnf-84" value="통화 상대를 선택한다" style="ellipse;whiteSpace=wrap;html=1;" vertex="1" parent="1">
          <mxGeometry x="493.5" y="1325" width="136.5" height="55" as="geometry" />
        </mxCell>
        <mxCell id="tMN2ydZxakkYXUKhEtnf-86" value="현재 보여진 화면에서 바로 &lt;br&gt;통화 상대를 선택한다" style="ellipse;whiteSpace=wrap;html=1;" vertex="1" parent="1">
          <mxGeometry x="365.25" y="1420" width="170" height="54" as="geometry" />
        </mxCell>
        <mxCell id="tMN2ydZxakkYXUKhEtnf-87" value="&amp;lt;&amp;lt;extend&amp;gt;&amp;gt;" style="html=1;verticalAlign=bottom;labelBackgroundColor=none;endArrow=open;endFill=0;dashed=1;rounded=0;exitX=0.191;exitY=0.982;exitDx=0;exitDy=0;exitPerimeter=0;" edge="1" parent="1" target="tMN2ydZxakkYXUKhEtnf-86" source="tMN2ydZxakkYXUKhEtnf-84">
          <mxGeometry x="-0.2806" y="-4" width="160" relative="1" as="geometry">
            <mxPoint x="534.25" y="1372.5" as="sourcePoint" />
            <mxPoint x="565.7943501681066" y="1327.4055283065818" as="targetPoint" />
            <mxPoint as="offset" />
          </mxGeometry>
        </mxCell>
        <mxCell id="tMN2ydZxakkYXUKhEtnf-88" value="주제 : 전화앱을 통해서 전화를 건다" style="rounded=0;whiteSpace=wrap;html=1;" vertex="1" parent="1">
          <mxGeometry x="15.25" y="1000" width="220" height="30" as="geometry" />
        </mxCell>
        <mxCell id="tMN2ydZxakkYXUKhEtnf-89" value="나" style="shape=umlActor;verticalLabelPosition=bottom;verticalAlign=top;html=1;outlineConnect=0;" vertex="1" parent="1">
          <mxGeometry x="15.25" y="1490" width="60" height="90" as="geometry" />
        </mxCell>
      </root>
    </mxGraphModel>
  </diagram>
</mxfile>
